<mxfile host="app.diagrams.net" agent="Mozilla/5.0 (Windows NT 10.0; Win64; x64; rv:143.0) Gecko/20100101 Firefox/143.0" version="28.2.5">
  <diagram name="PÃ¡gina-1" id="iUSgQEMPZRD2lbKq0Fta">
    <mxGraphModel dx="901" dy="610" grid="1" gridSize="10" guides="1" tooltips="1" connect="1" arrows="1" fold="1" page="1" pageScale="1" pageWidth="827" pageHeight="1169" math="0" shadow="0">
      <root>
        <mxCell id="0" />
        <mxCell id="1" parent="0" />
        <mxCell id="UPi75d0RxTLbv30p88WG-40" value="Table" style="shape=table;startSize=30;container=1;collapsible=1;childLayout=tableLayout;fixedRows=1;rowLines=0;fontStyle=1;align=center;resizeLast=1;html=1;" vertex="1" parent="1">
          <mxGeometry x="50" y="222" width="191" height="190" as="geometry" />
        </mxCell>
        <mxCell id="UPi75d0RxTLbv30p88WG-41" value="" style="shape=tableRow;horizontal=0;startSize=0;swimlaneHead=0;swimlaneBody=0;fillColor=none;collapsible=0;dropTarget=0;points=[[0,0.5],[1,0.5]];portConstraint=eastwest;top=0;left=0;right=0;bottom=1;" vertex="1" parent="UPi75d0RxTLbv30p88WG-40">
          <mxGeometry y="30" width="191" height="30" as="geometry" />
        </mxCell>
        <mxCell id="UPi75d0RxTLbv30p88WG-42" value="PK" style="shape=partialRectangle;connectable=0;fillColor=none;top=0;left=0;bottom=0;right=0;fontStyle=1;overflow=hidden;whiteSpace=wrap;html=1;" vertex="1" parent="UPi75d0RxTLbv30p88WG-41">
          <mxGeometry width="30" height="30" as="geometry">
            <mxRectangle width="30" height="30" as="alternateBounds" />
          </mxGeometry>
        </mxCell>
        <mxCell id="UPi75d0RxTLbv30p88WG-43" value="numero_cliente INT" style="shape=partialRectangle;connectable=0;fillColor=none;top=0;left=0;bottom=0;right=0;align=left;spacingLeft=6;fontStyle=5;overflow=hidden;whiteSpace=wrap;html=1;" vertex="1" parent="UPi75d0RxTLbv30p88WG-41">
          <mxGeometry x="30" width="161" height="30" as="geometry">
            <mxRectangle width="161" height="30" as="alternateBounds" />
          </mxGeometry>
        </mxCell>
        <mxCell id="UPi75d0RxTLbv30p88WG-44" value="" style="shape=tableRow;horizontal=0;startSize=0;swimlaneHead=0;swimlaneBody=0;fillColor=none;collapsible=0;dropTarget=0;points=[[0,0.5],[1,0.5]];portConstraint=eastwest;top=0;left=0;right=0;bottom=0;" vertex="1" parent="UPi75d0RxTLbv30p88WG-40">
          <mxGeometry y="60" width="191" height="20" as="geometry" />
        </mxCell>
        <mxCell id="UPi75d0RxTLbv30p88WG-45" value="" style="shape=partialRectangle;connectable=0;fillColor=none;top=0;left=0;bottom=0;right=0;editable=1;overflow=hidden;whiteSpace=wrap;html=1;" vertex="1" parent="UPi75d0RxTLbv30p88WG-44">
          <mxGeometry width="30" height="20" as="geometry">
            <mxRectangle width="30" height="20" as="alternateBounds" />
          </mxGeometry>
        </mxCell>
        <mxCell id="UPi75d0RxTLbv30p88WG-46" value="" style="shape=partialRectangle;connectable=0;fillColor=none;top=0;left=0;bottom=0;right=0;align=left;spacingLeft=6;overflow=hidden;whiteSpace=wrap;html=1;" vertex="1" parent="UPi75d0RxTLbv30p88WG-44">
          <mxGeometry x="30" width="161" height="20" as="geometry">
            <mxRectangle width="161" height="20" as="alternateBounds" />
          </mxGeometry>
        </mxCell>
        <mxCell id="UPi75d0RxTLbv30p88WG-47" value="" style="shape=tableRow;horizontal=0;startSize=0;swimlaneHead=0;swimlaneBody=0;fillColor=none;collapsible=0;dropTarget=0;points=[[0,0.5],[1,0.5]];portConstraint=eastwest;top=0;left=0;right=0;bottom=0;" vertex="1" parent="UPi75d0RxTLbv30p88WG-40">
          <mxGeometry y="80" width="191" height="80" as="geometry" />
        </mxCell>
        <mxCell id="UPi75d0RxTLbv30p88WG-48" value="" style="shape=partialRectangle;connectable=0;fillColor=none;top=0;left=0;bottom=0;right=0;editable=1;overflow=hidden;whiteSpace=wrap;html=1;" vertex="1" parent="UPi75d0RxTLbv30p88WG-47">
          <mxGeometry width="30" height="80" as="geometry">
            <mxRectangle width="30" height="80" as="alternateBounds" />
          </mxGeometry>
        </mxCell>
        <mxCell id="UPi75d0RxTLbv30p88WG-49" value="&lt;div&gt;nombre VARCHAR(25)&amp;nbsp;&lt;/div&gt;&lt;div&gt;apellido&amp;nbsp;VARCHAR(25)&lt;/div&gt;&lt;div&gt;dni&amp;nbsp;VARCHAR(15)&lt;/div&gt;&lt;div&gt;fecha_nac DATE&lt;/div&gt;&lt;div&gt;sueldo DOUBLE&lt;/div&gt;" style="shape=partialRectangle;connectable=0;fillColor=none;top=0;left=0;bottom=0;right=0;align=left;spacingLeft=6;overflow=hidden;whiteSpace=wrap;html=1;" vertex="1" parent="UPi75d0RxTLbv30p88WG-47">
          <mxGeometry x="30" width="161" height="80" as="geometry">
            <mxRectangle width="161" height="80" as="alternateBounds" />
          </mxGeometry>
        </mxCell>
        <mxCell id="UPi75d0RxTLbv30p88WG-50" value="" style="shape=tableRow;horizontal=0;startSize=0;swimlaneHead=0;swimlaneBody=0;fillColor=none;collapsible=0;dropTarget=0;points=[[0,0.5],[1,0.5]];portConstraint=eastwest;top=0;left=0;right=0;bottom=0;" vertex="1" parent="UPi75d0RxTLbv30p88WG-40">
          <mxGeometry y="160" width="191" height="30" as="geometry" />
        </mxCell>
        <mxCell id="UPi75d0RxTLbv30p88WG-51" value="" style="shape=partialRectangle;connectable=0;fillColor=none;top=0;left=0;bottom=0;right=0;editable=1;overflow=hidden;whiteSpace=wrap;html=1;" vertex="1" parent="UPi75d0RxTLbv30p88WG-50">
          <mxGeometry width="30" height="30" as="geometry">
            <mxRectangle width="30" height="30" as="alternateBounds" />
          </mxGeometry>
        </mxCell>
        <mxCell id="UPi75d0RxTLbv30p88WG-52" value="" style="shape=partialRectangle;connectable=0;fillColor=none;top=0;left=0;bottom=0;right=0;align=left;spacingLeft=6;overflow=hidden;whiteSpace=wrap;html=1;" vertex="1" parent="UPi75d0RxTLbv30p88WG-50">
          <mxGeometry x="30" width="161" height="30" as="geometry">
            <mxRectangle width="161" height="30" as="alternateBounds" />
          </mxGeometry>
        </mxCell>
        <mxCell id="UPi75d0RxTLbv30p88WG-53" value="servicios" style="shape=table;startSize=30;container=1;collapsible=1;childLayout=tableLayout;fixedRows=1;rowLines=0;fontStyle=1;align=center;resizeLast=1;html=1;" vertex="1" parent="1">
          <mxGeometry x="350" y="210" width="220" height="210" as="geometry" />
        </mxCell>
        <mxCell id="UPi75d0RxTLbv30p88WG-54" value="" style="shape=tableRow;horizontal=0;startSize=0;swimlaneHead=0;swimlaneBody=0;fillColor=none;collapsible=0;dropTarget=0;points=[[0,0.5],[1,0.5]];portConstraint=eastwest;top=0;left=0;right=0;bottom=1;" vertex="1" parent="UPi75d0RxTLbv30p88WG-53">
          <mxGeometry y="30" width="220" height="30" as="geometry" />
        </mxCell>
        <mxCell id="UPi75d0RxTLbv30p88WG-55" value="PK" style="shape=partialRectangle;connectable=0;fillColor=none;top=0;left=0;bottom=0;right=0;fontStyle=1;overflow=hidden;whiteSpace=wrap;html=1;" vertex="1" parent="UPi75d0RxTLbv30p88WG-54">
          <mxGeometry width="30.000000000000114" height="30" as="geometry">
            <mxRectangle width="30.000000000000114" height="30" as="alternateBounds" />
          </mxGeometry>
        </mxCell>
        <mxCell id="UPi75d0RxTLbv30p88WG-56" value="&lt;br&gt;&lt;div&gt;codigo INT&lt;/div&gt;&lt;div&gt;&lt;br&gt;&lt;/div&gt;&lt;div&gt;&lt;br/&gt;&lt;/div&gt;" style="shape=partialRectangle;connectable=0;fillColor=none;top=0;left=0;bottom=0;right=0;align=left;spacingLeft=6;fontStyle=5;overflow=hidden;whiteSpace=wrap;html=1;" vertex="1" parent="UPi75d0RxTLbv30p88WG-54">
          <mxGeometry x="30.000000000000114" width="189.9999999999999" height="30" as="geometry">
            <mxRectangle width="189.9999999999999" height="30" as="alternateBounds" />
          </mxGeometry>
        </mxCell>
        <mxCell id="UPi75d0RxTLbv30p88WG-57" value="" style="shape=tableRow;horizontal=0;startSize=0;swimlaneHead=0;swimlaneBody=0;fillColor=none;collapsible=0;dropTarget=0;points=[[0,0.5],[1,0.5]];portConstraint=eastwest;top=0;left=0;right=0;bottom=0;" vertex="1" parent="UPi75d0RxTLbv30p88WG-53">
          <mxGeometry y="60" width="220" height="20" as="geometry" />
        </mxCell>
        <mxCell id="UPi75d0RxTLbv30p88WG-58" value="" style="shape=partialRectangle;connectable=0;fillColor=none;top=0;left=0;bottom=0;right=0;editable=1;overflow=hidden;whiteSpace=wrap;html=1;" vertex="1" parent="UPi75d0RxTLbv30p88WG-57">
          <mxGeometry width="30.000000000000114" height="20" as="geometry">
            <mxRectangle width="30.000000000000114" height="20" as="alternateBounds" />
          </mxGeometry>
        </mxCell>
        <mxCell id="UPi75d0RxTLbv30p88WG-59" value="" style="shape=partialRectangle;connectable=0;fillColor=none;top=0;left=0;bottom=0;right=0;align=left;spacingLeft=6;overflow=hidden;whiteSpace=wrap;html=1;" vertex="1" parent="UPi75d0RxTLbv30p88WG-57">
          <mxGeometry x="30.000000000000114" width="189.9999999999999" height="20" as="geometry">
            <mxRectangle width="189.9999999999999" height="20" as="alternateBounds" />
          </mxGeometry>
        </mxCell>
        <mxCell id="UPi75d0RxTLbv30p88WG-60" value="" style="shape=tableRow;horizontal=0;startSize=0;swimlaneHead=0;swimlaneBody=0;fillColor=none;collapsible=0;dropTarget=0;points=[[0,0.5],[1,0.5]];portConstraint=eastwest;top=0;left=0;right=0;bottom=0;" vertex="1" parent="UPi75d0RxTLbv30p88WG-53">
          <mxGeometry y="80" width="220" height="100" as="geometry" />
        </mxCell>
        <mxCell id="UPi75d0RxTLbv30p88WG-61" value="&lt;div&gt;FK&lt;/div&gt;" style="shape=partialRectangle;connectable=0;fillColor=none;top=0;left=0;bottom=0;right=0;editable=1;overflow=hidden;whiteSpace=wrap;html=1;" vertex="1" parent="UPi75d0RxTLbv30p88WG-60">
          <mxGeometry width="30.000000000000114" height="100" as="geometry">
            <mxRectangle width="30.000000000000114" height="100" as="alternateBounds" />
          </mxGeometry>
        </mxCell>
        <mxCell id="UPi75d0RxTLbv30p88WG-62" value="&lt;div&gt;&lt;br&gt;&lt;/div&gt;&lt;div&gt;tipo VARCHAR(20)&lt;/div&gt;&lt;div&gt;detalle_cobertura VARCHAR (120)&lt;/div&gt;&lt;div&gt;precio DOUBLE&lt;/div&gt;&lt;div&gt;numero_cliente INT&lt;/div&gt;" style="shape=partialRectangle;connectable=0;fillColor=none;top=0;left=0;bottom=0;right=0;align=left;spacingLeft=6;overflow=hidden;whiteSpace=wrap;html=1;" vertex="1" parent="UPi75d0RxTLbv30p88WG-60">
          <mxGeometry x="30.000000000000114" width="189.9999999999999" height="100" as="geometry">
            <mxRectangle width="189.9999999999999" height="100" as="alternateBounds" />
          </mxGeometry>
        </mxCell>
        <mxCell id="UPi75d0RxTLbv30p88WG-63" value="" style="shape=tableRow;horizontal=0;startSize=0;swimlaneHead=0;swimlaneBody=0;fillColor=none;collapsible=0;dropTarget=0;points=[[0,0.5],[1,0.5]];portConstraint=eastwest;top=0;left=0;right=0;bottom=0;" vertex="1" parent="UPi75d0RxTLbv30p88WG-53">
          <mxGeometry y="180" width="220" height="30" as="geometry" />
        </mxCell>
        <mxCell id="UPi75d0RxTLbv30p88WG-64" value="FK" style="shape=partialRectangle;connectable=0;fillColor=none;top=0;left=0;bottom=0;right=0;editable=1;overflow=hidden;whiteSpace=wrap;html=1;" vertex="1" parent="UPi75d0RxTLbv30p88WG-63">
          <mxGeometry width="30.000000000000114" height="30" as="geometry">
            <mxRectangle width="30.000000000000114" height="30" as="alternateBounds" />
          </mxGeometry>
        </mxCell>
        <mxCell id="UPi75d0RxTLbv30p88WG-65" value="codigo_prop INT" style="shape=partialRectangle;connectable=0;fillColor=none;top=0;left=0;bottom=0;right=0;align=left;spacingLeft=6;overflow=hidden;whiteSpace=wrap;html=1;" vertex="1" parent="UPi75d0RxTLbv30p88WG-63">
          <mxGeometry x="30.000000000000114" width="189.9999999999999" height="30" as="geometry">
            <mxRectangle width="189.9999999999999" height="30" as="alternateBounds" />
          </mxGeometry>
        </mxCell>
        <mxCell id="UPi75d0RxTLbv30p88WG-66" value="propiedades" style="shape=table;startSize=30;container=1;collapsible=1;childLayout=tableLayout;fixedRows=1;rowLines=0;fontStyle=1;align=center;resizeLast=1;html=1;" vertex="1" parent="1">
          <mxGeometry x="80" y="500" width="220" height="190" as="geometry" />
        </mxCell>
        <mxCell id="UPi75d0RxTLbv30p88WG-67" value="" style="shape=tableRow;horizontal=0;startSize=0;swimlaneHead=0;swimlaneBody=0;fillColor=none;collapsible=0;dropTarget=0;points=[[0,0.5],[1,0.5]];portConstraint=eastwest;top=0;left=0;right=0;bottom=1;" vertex="1" parent="UPi75d0RxTLbv30p88WG-66">
          <mxGeometry y="30" width="220" height="30" as="geometry" />
        </mxCell>
        <mxCell id="UPi75d0RxTLbv30p88WG-68" value="PK" style="shape=partialRectangle;connectable=0;fillColor=none;top=0;left=0;bottom=0;right=0;fontStyle=1;overflow=hidden;whiteSpace=wrap;html=1;" vertex="1" parent="UPi75d0RxTLbv30p88WG-67">
          <mxGeometry width="30" height="30" as="geometry">
            <mxRectangle width="30" height="30" as="alternateBounds" />
          </mxGeometry>
        </mxCell>
        <mxCell id="UPi75d0RxTLbv30p88WG-69" value="codigo_prop INT" style="shape=partialRectangle;connectable=0;fillColor=none;top=0;left=0;bottom=0;right=0;align=left;spacingLeft=6;fontStyle=5;overflow=hidden;whiteSpace=wrap;html=1;" vertex="1" parent="UPi75d0RxTLbv30p88WG-67">
          <mxGeometry x="30" width="190" height="30" as="geometry">
            <mxRectangle width="190" height="30" as="alternateBounds" />
          </mxGeometry>
        </mxCell>
        <mxCell id="UPi75d0RxTLbv30p88WG-70" value="" style="shape=tableRow;horizontal=0;startSize=0;swimlaneHead=0;swimlaneBody=0;fillColor=none;collapsible=0;dropTarget=0;points=[[0,0.5],[1,0.5]];portConstraint=eastwest;top=0;left=0;right=0;bottom=0;" vertex="1" parent="UPi75d0RxTLbv30p88WG-66">
          <mxGeometry y="60" width="220" height="20" as="geometry" />
        </mxCell>
        <mxCell id="UPi75d0RxTLbv30p88WG-71" value="" style="shape=partialRectangle;connectable=0;fillColor=none;top=0;left=0;bottom=0;right=0;editable=1;overflow=hidden;whiteSpace=wrap;html=1;" vertex="1" parent="UPi75d0RxTLbv30p88WG-70">
          <mxGeometry width="30" height="20" as="geometry">
            <mxRectangle width="30" height="20" as="alternateBounds" />
          </mxGeometry>
        </mxCell>
        <mxCell id="UPi75d0RxTLbv30p88WG-72" value="" style="shape=partialRectangle;connectable=0;fillColor=none;top=0;left=0;bottom=0;right=0;align=left;spacingLeft=6;overflow=hidden;whiteSpace=wrap;html=1;" vertex="1" parent="UPi75d0RxTLbv30p88WG-70">
          <mxGeometry x="30" width="190" height="20" as="geometry">
            <mxRectangle width="190" height="20" as="alternateBounds" />
          </mxGeometry>
        </mxCell>
        <mxCell id="UPi75d0RxTLbv30p88WG-73" value="" style="shape=tableRow;horizontal=0;startSize=0;swimlaneHead=0;swimlaneBody=0;fillColor=none;collapsible=0;dropTarget=0;points=[[0,0.5],[1,0.5]];portConstraint=eastwest;top=0;left=0;right=0;bottom=0;" vertex="1" parent="UPi75d0RxTLbv30p88WG-66">
          <mxGeometry y="80" width="220" height="80" as="geometry" />
        </mxCell>
        <mxCell id="UPi75d0RxTLbv30p88WG-74" value="" style="shape=partialRectangle;connectable=0;fillColor=none;top=0;left=0;bottom=0;right=0;editable=1;overflow=hidden;whiteSpace=wrap;html=1;" vertex="1" parent="UPi75d0RxTLbv30p88WG-73">
          <mxGeometry width="30" height="80" as="geometry">
            <mxRectangle width="30" height="80" as="alternateBounds" />
          </mxGeometry>
        </mxCell>
        <mxCell id="UPi75d0RxTLbv30p88WG-75" value="&lt;div&gt;direccion VARCHAR (120)&lt;/div&gt;&lt;div&gt;metros_cuadrados DOUBLE&lt;/div&gt;&lt;div&gt;zona VARCHAR (45)&lt;/div&gt;&lt;div&gt;valor_de_mercado DOUBLE&lt;/div&gt;" style="shape=partialRectangle;connectable=0;fillColor=none;top=0;left=0;bottom=0;right=0;align=left;spacingLeft=6;overflow=hidden;whiteSpace=wrap;html=1;" vertex="1" parent="UPi75d0RxTLbv30p88WG-73">
          <mxGeometry x="30" width="190" height="80" as="geometry">
            <mxRectangle width="190" height="80" as="alternateBounds" />
          </mxGeometry>
        </mxCell>
        <mxCell id="UPi75d0RxTLbv30p88WG-76" value="" style="shape=tableRow;horizontal=0;startSize=0;swimlaneHead=0;swimlaneBody=0;fillColor=none;collapsible=0;dropTarget=0;points=[[0,0.5],[1,0.5]];portConstraint=eastwest;top=0;left=0;right=0;bottom=0;" vertex="1" parent="UPi75d0RxTLbv30p88WG-66">
          <mxGeometry y="160" width="220" height="30" as="geometry" />
        </mxCell>
        <mxCell id="UPi75d0RxTLbv30p88WG-77" value="" style="shape=partialRectangle;connectable=0;fillColor=none;top=0;left=0;bottom=0;right=0;editable=1;overflow=hidden;whiteSpace=wrap;html=1;" vertex="1" parent="UPi75d0RxTLbv30p88WG-76">
          <mxGeometry width="30" height="30" as="geometry">
            <mxRectangle width="30" height="30" as="alternateBounds" />
          </mxGeometry>
        </mxCell>
        <mxCell id="UPi75d0RxTLbv30p88WG-78" value="" style="shape=partialRectangle;connectable=0;fillColor=none;top=0;left=0;bottom=0;right=0;align=left;spacingLeft=6;overflow=hidden;whiteSpace=wrap;html=1;" vertex="1" parent="UPi75d0RxTLbv30p88WG-76">
          <mxGeometry x="30" width="190" height="30" as="geometry">
            <mxRectangle width="190" height="30" as="alternateBounds" />
          </mxGeometry>
        </mxCell>
        <mxCell id="UPi75d0RxTLbv30p88WG-79" value="" style="edgeStyle=entityRelationEdgeStyle;fontSize=12;html=1;endArrow=ERoneToMany;rounded=0;" edge="1" parent="1" source="UPi75d0RxTLbv30p88WG-41">
          <mxGeometry width="100" height="100" relative="1" as="geometry">
            <mxPoint x="250" y="400" as="sourcePoint" />
            <mxPoint x="350" y="372" as="targetPoint" />
          </mxGeometry>
        </mxCell>
        <mxCell id="UPi75d0RxTLbv30p88WG-80" value="" style="edgeStyle=entityRelationEdgeStyle;fontSize=12;html=1;endArrow=ERmandOne;startArrow=ERmandOne;rounded=0;exitX=1;exitY=0.5;exitDx=0;exitDy=0;" edge="1" parent="1" source="UPi75d0RxTLbv30p88WG-67">
          <mxGeometry width="100" height="100" relative="1" as="geometry">
            <mxPoint x="129.9999999999999" y="584.9999999999999" as="sourcePoint" />
            <mxPoint x="350" y="409.9999999999999" as="targetPoint" />
          </mxGeometry>
        </mxCell>
      </root>
    </mxGraphModel>
  </diagram>
</mxfile>
